<svg width="220" height="107" viewBox="0 0 220 107" fill="none" xmlns="http://www.w3.org/2000/svg">
<path d="M113.582 51.1603L124.048 50.4813C124.287 52.1988 124.725 53.4769 125.441 54.3955C126.596 55.8334 128.187 56.5524 130.297 56.5524C131.849 56.5524 133.083 56.1929 133.918 55.434C134.714 54.8349 135.192 53.8763 135.192 52.8778C135.192 51.9192 134.754 51.0005 133.998 50.4014C133.202 49.6824 131.331 48.9635 128.386 48.3244C123.571 47.246 120.109 45.8081 118.079 43.9708C116.049 42.2533 114.895 39.737 114.975 37.0609C114.975 35.2236 115.532 33.3863 116.567 31.8685C117.76 30.151 119.392 28.793 121.342 28.0341C123.452 27.1155 126.397 26.6362 130.098 26.6362C134.635 26.6362 138.097 27.4749 140.485 29.1924C142.873 30.87 144.305 33.586 144.743 37.3006L134.396 37.8997C134.117 36.302 133.56 35.1437 132.645 34.3848C131.729 33.6259 130.535 33.2665 128.983 33.2665C127.71 33.2665 126.755 33.5461 126.118 34.0653C125.521 34.5446 125.123 35.2635 125.163 36.0624C125.163 36.6615 125.481 37.2207 125.959 37.5802C126.476 38.0595 127.71 38.4988 129.66 38.8982C134.475 39.9367 137.898 40.9752 140.007 42.0536C142.117 43.132 143.629 44.4501 144.544 46.0078C145.499 47.6055 145.977 49.4428 145.937 51.32C145.937 53.5568 145.3 55.7935 144.027 57.6708C142.713 59.6279 140.883 61.1457 138.734 62.0643C136.465 63.0629 133.6 63.5821 130.177 63.5821C124.128 63.5821 119.949 62.4238 117.601 60.0672C115.253 57.7107 113.86 54.755 113.582 51.1603ZM2.50724 62.983V27.2752H20.8538C24.2366 27.2752 26.8632 27.5548 28.6541 28.1539C30.4052 28.7131 31.9573 29.8714 32.992 31.4292C34.1462 33.1466 34.7033 35.1437 34.6635 37.2207C34.7829 40.7355 32.992 44.0906 29.9276 45.8481C28.7337 46.5271 27.4204 47.0064 26.0673 47.246C27.0622 47.5256 28.0572 48.0049 28.9327 48.5641C29.6093 49.1233 30.1664 49.7623 30.6838 50.4413C31.2808 51.1203 31.7981 51.8792 32.2359 52.6781L37.5687 63.0229H25.0724L19.1823 52.039C18.4262 50.641 17.7894 49.7224 17.1925 49.283C16.3965 48.7238 15.4414 48.4443 14.4863 48.4443H13.5311V62.943H2.50724V62.983ZM13.5311 41.7341H18.1874C19.1823 41.6542 20.1375 41.4944 21.0926 41.2548C21.809 41.135 22.4457 40.7355 22.8835 40.1364C23.958 38.6985 23.7988 36.6615 22.4855 35.4233C21.7692 34.8242 20.3763 34.5047 18.3864 34.5047H13.5311V41.7341ZM0 93.5782L10.4667 92.8992C10.7055 94.6167 11.1433 95.8948 11.8596 96.8135C12.974 98.2514 14.6056 99.0103 16.7149 99.0103C18.267 99.0103 19.5007 98.6508 20.3365 97.8919C21.1324 97.2528 21.61 96.3342 21.61 95.3356C21.61 94.377 21.1722 93.4584 20.4161 92.8593C19.6201 92.1403 17.7496 91.4214 14.7648 90.7823C9.94935 89.7039 6.48698 88.266 4.45731 86.4287C2.42764 84.7112 1.27352 82.1949 1.35311 79.5188C1.35311 77.6815 1.91028 75.8442 2.94501 74.3264C4.13893 72.6089 5.77062 71.2509 7.7207 70.492C9.82996 69.5733 12.775 69.094 16.4761 69.094C21.013 69.094 24.4754 69.9328 26.8632 71.6503C29.2511 73.3678 30.644 76.0439 31.0818 79.7584L20.7344 80.3576C20.4559 78.7599 19.8987 77.6016 18.9834 76.8427C18.1078 76.0838 16.8741 75.7243 15.322 75.7643C14.0485 75.7643 13.0933 76.0439 12.4566 76.603C11.8198 77.0823 11.4617 77.8013 11.5014 78.6001C11.5014 79.1992 11.8198 79.7584 12.2974 80.1179C12.8148 80.5972 14.0485 81.0366 15.9986 81.436C20.814 82.4745 24.2366 83.5129 26.3459 84.5914C28.4551 85.6698 29.9674 86.9879 30.8828 88.5456C31.8379 90.1432 32.3155 91.9805 32.3155 93.8179C32.3155 96.0546 31.6389 98.2514 30.4052 100.129C29.0919 102.086 27.2612 103.604 25.1122 104.522C22.8437 105.521 19.9783 106.04 16.5557 106.04C10.5065 106.04 6.32779 104.882 3.97974 102.525C1.63169 100.129 0.318379 97.1729 0 93.5782H0Z" fill="white"/>
<path d="M52.9304 90.7823L62.5614 93.698C62.044 96.1344 60.9695 98.451 59.497 100.488C58.1439 102.285 56.353 103.683 54.3233 104.602C52.2539 105.521 49.6272 106 46.4434 106C42.5831 106 39.3993 105.441 36.9717 104.322C34.5042 103.204 32.395 101.207 30.6041 98.3711C28.8132 95.5353 27.9377 91.9006 27.9377 87.4671C27.9377 81.5558 29.4898 77.0024 32.6337 73.847C35.7777 70.6917 40.1953 69.094 45.9261 69.094C50.4232 69.094 53.9254 70.0126 56.5122 71.81C59.0592 73.6473 60.9695 76.4432 62.243 80.1977L52.5324 82.3546C52.2937 81.5158 51.9355 80.677 51.4579 79.9581C50.861 79.1193 50.1048 78.4803 49.1895 78.001C48.2741 77.5217 47.2394 77.322 46.2047 77.322C43.6974 77.322 41.7871 78.3205 40.4738 80.3575C39.4789 81.8353 38.9615 84.1919 38.9615 87.3872C38.9615 91.3414 39.5585 94.0575 40.7524 95.5353C41.9463 97.0131 43.6178 97.7321 45.8067 97.7321C47.9159 97.7321 49.5078 97.133 50.5824 95.9747C51.6569 94.7365 52.4529 93.019 52.9304 90.7823ZM75.416 69.6931H86.4V82.1948H98.4188V69.6931H109.483V105.401H98.4188V90.942H86.4V105.401H75.416V69.6931V69.6931Z" fill="white"/>
<path d="M107.97 87.547C107.97 81.7155 109.602 77.1622 112.826 73.9269C116.049 70.6917 120.586 69.0541 126.357 69.0541C132.287 69.0541 136.824 70.6517 140.047 73.8471C143.271 77.0424 144.863 81.5158 144.863 87.2674C144.863 91.4613 144.146 94.8563 142.753 97.5324C141.4 100.169 139.291 102.325 136.704 103.763C134.038 105.241 130.735 106 126.795 106C122.775 106 119.472 105.361 116.845 104.083C114.139 102.725 111.91 100.608 110.438 98.0117C108.806 95.2158 107.97 91.7409 107.97 87.547ZM118.955 87.587C118.955 91.1817 119.631 93.7779 120.944 95.3756C122.258 96.9333 124.088 97.7321 126.397 97.7321C128.745 97.7321 130.575 96.9732 131.889 95.4155C133.202 93.8578 133.839 91.1018 133.839 87.1077C133.839 83.7526 133.162 81.2762 131.809 79.7584C130.456 78.2007 128.625 77.4418 126.317 77.4418C124.287 77.3619 122.337 78.2406 120.984 79.7984C119.631 81.3561 118.955 83.9523 118.955 87.587V87.587ZM156.125 87.547C156.125 81.7155 157.757 77.1622 160.981 73.9269C164.204 70.6917 168.741 69.0541 174.512 69.0541C180.441 69.0541 185.018 70.6517 188.202 73.8471C191.386 77.0424 193.017 81.5158 193.017 87.2674C193.017 91.4613 192.301 94.8563 190.908 97.5324C189.555 100.169 187.446 102.325 184.859 103.763C182.193 105.241 178.889 106 174.949 106C170.93 106 167.627 105.361 165 104.083C162.294 102.725 160.065 100.608 158.593 98.0117C156.961 95.2158 156.125 91.7409 156.125 87.547V87.547ZM167.109 87.587C167.109 91.1817 167.786 93.7779 169.099 95.3756C170.413 96.9333 172.243 97.7321 174.551 97.7321C176.9 97.7321 178.73 96.9732 180.044 95.4155C181.357 93.8578 181.994 91.1018 181.994 87.1077C181.994 83.7526 181.317 81.2762 179.964 79.7584C178.611 78.2007 176.78 77.4418 174.472 77.4418C172.442 77.3619 170.452 78.2406 169.139 79.7984C167.786 81.3561 167.109 83.9523 167.109 87.587V87.587Z" fill="white"/>
<path d="M191.863 69.6931H202.847V96.6137H220V105.401H191.823V69.6931H191.863Z" fill="white"/>
<path d="M179.757 67.6324C190.815 59.2686 194.225 45.0907 187.373 35.9652C180.521 26.8396 166.002 26.222 154.943 34.5857C143.884 42.9495 140.474 57.1274 147.326 66.253C154.178 75.3786 168.698 75.9962 179.757 67.6324Z" fill="white"/>
<path d="M119.124 46.5832L176.27 3.36289L215.813 56.027L158.667 99.2473L119.124 46.5832Z" fill="#192F2D"/>
<path d="M179.757 67.6325C190.815 59.2687 194.225 45.0908 187.373 35.9652C180.521 26.8396 166.002 26.2221 154.943 34.5858C143.884 42.9496 140.474 57.1275 147.326 66.2531C154.178 75.3787 168.698 75.9962 179.757 67.6325Z" fill="#192F2D"/>
<path d="M135.037 50.0998L175.052 19.8367L199.889 52.9157L159.874 83.1788L135.037 50.0998Z" fill="#192F2D"/>
<path d="M179.757 67.6324C190.815 59.2686 194.225 45.0907 187.373 35.9652C180.521 26.8396 166.002 26.222 154.943 34.5857C143.884 42.9495 140.474 57.1274 147.326 66.253C154.178 75.3786 168.698 75.9962 179.757 67.6324Z" fill="#192F2D" stroke="white" stroke-width="4" stroke-miterlimit="10"/>
<path d="M135.037 50.0998L175.052 19.8367L199.889 52.9157L159.874 83.1788L135.037 50.0998Z" stroke="white" stroke-width="4" stroke-miterlimit="10"/>
<path d="M179.757 67.6325C190.815 59.2687 194.225 45.0908 187.373 35.9652C180.521 26.8396 166.002 26.2221 154.943 34.5858C143.884 42.9496 140.474 57.1275 147.326 66.2531C154.178 75.3787 168.698 75.9962 179.757 67.6325Z" stroke="white" stroke-width="4" stroke-miterlimit="10"/>
<path d="M135.037 50.0998L175.052 19.8367L199.889 52.9157L159.874 83.1788L135.037 50.0998Z" fill="#192F2D"/>
<path d="M179.757 67.6324C190.815 59.2686 194.225 45.0907 187.373 35.9652C180.521 26.8396 166.002 26.222 154.943 34.5857C143.884 42.9495 140.474 57.1274 147.326 66.253C154.178 75.3786 168.698 75.9962 179.757 67.6324Z" fill="#192F2D" stroke="white" stroke-width="4" stroke-miterlimit="10"/>
<path d="M135.037 50.0998L175.052 19.8367L199.889 52.9157L159.874 83.1788L135.037 50.0998Z" stroke="white" stroke-width="4" stroke-miterlimit="10"/>
<path d="M119.124 46.5832L176.27 3.36289L215.813 56.027L158.667 99.2473L119.124 46.5832Z" stroke="white" stroke-width="4" stroke-miterlimit="10"/>
<path d="M179.757 67.6325C190.815 59.2687 194.225 45.0908 187.373 35.9652C180.521 26.8396 166.002 26.2221 154.943 34.5858C143.884 42.9496 140.474 57.1275 147.326 66.2531C154.178 75.3787 168.698 75.9962 179.757 67.6325Z" stroke="white" stroke-width="4" stroke-miterlimit="10"/>
<path d="M156.165 48.4842L160.145 45.6883L165.04 52.678C165.876 53.7964 166.512 54.9947 166.99 56.3127C167.269 57.3113 167.189 58.3897 166.791 59.3483C166.274 60.5465 165.438 61.5451 164.323 62.264C163.01 63.1827 161.896 63.7019 160.941 63.8617C160.025 64.0214 159.07 63.8617 158.195 63.4623C157.24 62.983 156.404 62.304 155.767 61.4252L159.19 58.2299C159.468 58.6693 159.826 59.0687 160.224 59.3882C160.503 59.5879 160.821 59.7078 161.18 59.7078C161.458 59.7078 161.737 59.5879 161.936 59.4282C162.334 59.1885 162.612 58.7092 162.572 58.2299C162.453 57.5509 162.174 56.8719 161.737 56.3527L156.165 48.4842V48.4842ZM168.104 52.9177L171.726 50.0419C172.124 50.5212 172.641 50.8807 173.198 51.0804C173.994 51.32 174.83 51.1603 175.507 50.641C175.984 50.3215 176.382 49.8821 176.541 49.323C176.78 48.604 176.382 47.8052 175.666 47.5655C175.546 47.5256 175.427 47.4856 175.308 47.4856C174.83 47.4457 173.994 47.6454 172.761 48.1646C170.731 49.0034 169.139 49.323 167.945 49.2031C166.791 49.0833 165.716 48.4842 165.08 47.4856C164.602 46.8066 164.363 46.0078 164.323 45.209C164.323 44.2903 164.562 43.3717 165.08 42.6128C165.836 41.5344 166.751 40.6157 167.865 39.8967C169.537 38.7384 171.009 38.1793 172.283 38.1793C173.556 38.1793 174.75 38.7784 175.865 40.0166L172.283 42.8524C171.567 41.9338 170.214 41.7341 169.298 42.453L169.179 42.5728C168.781 42.8125 168.502 43.172 168.343 43.6113C168.224 43.9308 168.303 44.2903 168.502 44.5699C168.661 44.7696 168.9 44.9294 169.179 44.9294C169.497 44.9693 170.054 44.8096 170.85 44.4501C172.84 43.6113 174.352 43.132 175.387 42.9722C176.263 42.8125 177.178 42.8924 178.014 43.2518C178.77 43.5714 179.407 44.1306 179.844 44.8096C180.402 45.6084 180.72 46.567 180.76 47.5655C180.8 48.604 180.521 49.6025 179.964 50.4813C179.248 51.5597 178.332 52.4783 177.258 53.1973C175.069 54.7151 173.278 55.3541 171.845 55.1145C170.293 54.8748 169.02 54.076 168.104 52.9177V52.9177Z" fill="white"/>
</svg>
